<svg id="Component_9_1" data-name="Component 9 – 1" xmlns="http://www.w3.org/2000/svg" width="32" height="32" viewBox="0 0 32 32">
  <circle id="Ellipse_75" data-name="Ellipse 75" cx="16" cy="16" r="16" fill="#d2d2d2"/>
  <path id="Path_69383" data-name="Path 69383" d="M224.7,0a16.158,16.158,0,0,0-2.087.135,16,16,0,0,1,0,31.729A16.16,16.16,0,0,0,224.7,32a16,16,0,0,0,0-32Z" transform="translate(-208.695)" fill="#c4c4c4"/>
  <g id="Group_1296" data-name="Group 1296" transform="translate(6.922 6.922)">
    <path id="Path_69384" data-name="Path 69384" d="M121.878,221.286V211.061a.14.14,0,0,1,.14-.14h3.268a.14.14,0,0,1,.14.14v10.225a.14.14,0,0,1-.14.14h-3.268A.14.14,0,0,1,121.878,221.286Z" transform="translate(-121.182 -204.66)" fill="#1a1718"/>
    <path id="Path_69385" data-name="Path 69385" d="M112.87,114.991a2.122,2.122,0,1,1,2.122-2.122A2.124,2.124,0,0,1,112.87,114.991Z" transform="translate(-110.748 -110.747)" fill="#1a1718"/>
    <path id="Path_69386" data-name="Path 69386" d="M241,221.425a.166.166,0,0,1-.166-.166v-3.615c0-1.186-.267-3.176-2.052-3.176s-2.052,1.99-2.052,3.176v3.615a.166.166,0,0,1-.166.166h-3.216a.166.166,0,0,1-.166-.166V211.087a.166.166,0,0,1,.166-.166h2.52a.166.166,0,0,1,.166.166v.691a.166.166,0,0,0,.259.137,5.532,5.532,0,0,1,3.185-.994,4.5,4.5,0,0,1,3.745,1.8,6.339,6.339,0,0,1,1.159,3.8v4.738a.166.166,0,0,1-.166.166H241Z" transform="translate(-225.53 -204.66)" fill="#1a1718"/>
  </g>
</svg>
