<svg width="40" height="40" viewBox="0 0 40 40" fill="none" xmlns="http://www.w3.org/2000/svg">
<circle cx="20" cy="20" r="20" fill="white"/>
<path d="M26.399 26.3995V21.7115C26.399 19.4075 25.903 17.6475 23.215 17.6475C21.919 17.6475 21.055 18.3515 20.703 19.0235H20.671V17.8555H18.127V26.3995H20.783V22.1595C20.783 21.0395 20.991 19.9675 22.367 19.9675C23.727 19.9675 23.743 21.2315 23.743 22.2235V26.3835H26.399V26.3995Z" fill="#00A49B"/>
<path d="M13.8066 17.8555H16.4626V26.3995H13.8066V17.8555Z" fill="#00A49B"/>
<path d="M15.1356 13.5996C14.2876 13.5996 13.5996 14.2876 13.5996 15.1356C13.5996 15.9836 14.2876 16.6876 15.1356 16.6876C15.9836 16.6876 16.6716 15.9836 16.6716 15.1356C16.6716 14.2876 15.9836 13.5996 15.1356 13.5996Z" fill="#00A49B"/>
</svg>
