<svg id="Component_7_1" data-name="Component 7 – 1" xmlns="http://www.w3.org/2000/svg" width="32" height="32" viewBox="0 0 32 32">
  <circle id="Ellipse_72" data-name="Ellipse 72" cx="16" cy="16" r="16" fill="#d2d2d2"/>
  <path id="Path_69376" data-name="Path 69376" d="M224.7,0a16.158,16.158,0,0,0-2.087.135,16,16,0,0,1,0,31.729A16.16,16.16,0,0,0,224.7,32a16,16,0,0,0,0-32Z" transform="translate(-208.695)" fill="#c4c4c4"/>
  <path id="Path_69377" data-name="Path 69377" d="M120.1,149.773a12,12,0,0,1-4.28-.786l-1.358-.517a.156.156,0,0,1,.029-.3l1.431-.251a8.654,8.654,0,0,0,3.655-1.57.157.157,0,0,0-.072-.282,4.165,4.165,0,0,1-3.006-2.051l-.321-.566a.156.156,0,0,1,.129-.233l.65-.031h.007a.156.156,0,0,0,.054-.3,4.017,4.017,0,0,1-2.275-2.984l-.1-.592a.157.157,0,0,1,.19-.178l.585.137a4.2,4.2,0,0,0,.957.11h.012a4.323,4.323,0,0,1-1.85-4.722l.175-.672a.157.157,0,0,1,.261-.072l.494.488a12.249,12.249,0,0,0,4.629,2.869,13.145,13.145,0,0,0,2.321.54h.012l.23.009c0-.025,0-.051,0-.076a4.736,4.736,0,0,1,8.045-3.389.157.157,0,0,0,.133.044,8.089,8.089,0,0,0,1.351-.326l1.46-.489a.156.156,0,0,1,.165.254l-1.037,1.138a4.288,4.288,0,0,1-.445.423.156.156,0,0,0,.127.275q.212-.04.421-.09l1.34-.321a.156.156,0,0,1,.149.261l-.959.989a9.013,9.013,0,0,1-1.28,1.092v.023c0,.039,0,.078,0,.117v.047A12.053,12.053,0,0,1,120.1,149.773Z" transform="translate(-107.21 -124.695)" fill="#1a1718"/>
</svg>
