<svg width="40" height="40" viewBox="0 0 40 40" fill="none" xmlns="http://www.w3.org/2000/svg">
<circle cx="20" cy="20" r="20" fill="white"/>
<path d="M27.7982 15.5206C27.2176 15.7786 26.5923 15.9524 25.9367 16.0314C26.6068 15.6298 27.1189 14.9953 27.3625 14.2383C26.7358 14.6095 26.042 14.8794 25.3034 15.0243C24.7136 14.3936 23.8697 14 22.939 14C20.8457 14 19.308 15.9524 19.7806 17.9798C17.0883 17.8442 14.6989 16.554 13.1006 14.5937C12.2515 16.0498 12.6609 17.9561 14.1038 18.9211C13.5732 18.904 13.0743 18.7579 12.6372 18.5157C12.6016 20.0165 13.6786 21.4212 15.2373 21.7345C14.7818 21.8583 14.2815 21.8873 13.7734 21.7898C14.1854 23.0774 15.3848 24.0134 16.8013 24.0398C15.4361 25.1088 13.7207 25.5867 12 25.3839C13.435 26.3042 15.1373 26.84 16.9672 26.84C22.9863 26.84 26.3856 21.7569 26.1802 17.1978C26.8148 16.7423 27.3638 16.1709 27.7982 15.5206Z" fill="#00A49B"/>
</svg>
